<svg xmlns="http://www.w3.org/2000/svg" xmlns:xlink="http://www.w3.org/1999/xlink" version="1.1" id="Capa_1" x="0px" y="0px"
 viewBox="0 0 456.024 456.024" style="enable-background:new 0 0 456.024 456.024;" xml:space="preserve" width="512px" height="512px">
	<g>
		<g>
			<path d="M377.638,420.728l-62.344-131.536c-0.532-1.082-1.307-2.027-2.264-2.76c1.6-1.104,3.128-2.176,4.624-3.376l6.328-5.072    c28.642-22.92,42.267-59.795,35.408-95.832l-16.576-87.104C330.735,31.628,269.532-9.993,206.112,2.085    c-47.128,8.975-83.987,45.835-92.962,92.962l-16.592,87.104c-6.859,36.04,6.773,72.918,35.424,95.832l6.336,5.072    c1.496,1.2,3.064,2.272,4.624,3.376c-0.958,0.733-1.732,1.678-2.264,2.76L78.382,420.728c-2.933,6.214-3.156,13.367-0.616,19.752    c3.761,9.367,12.866,15.484,22.96,15.424c3.361-0.009,6.69-0.658,9.808-1.912c5.796-2.309,10.501-6.728,13.168-12.368l27.6-58.304    l52.68-21.696V409.4c0,13.255,10.745,24,24,24s24-10.745,24-24v-47.776l52.68,21.696l27.6,58.304    c2.812,5.843,7.774,10.372,13.848,12.64c2.902,1.165,6.001,1.762,9.128,1.76c13.652,0.031,24.745-11.011,24.777-24.663    C380.023,427.683,379.211,424.051,377.638,420.728z M109.238,434.768c-1.09,2.185-2.999,3.85-5.312,4.632    c-4.468,1.785-9.537-0.389-11.323-4.857c-0.9-2.252-0.82-4.776,0.219-6.967v0l62.312-131.552c0.245-0.632,0.406-1.294,0.48-1.968    c4.269,2.185,8.691,4.057,13.232,5.6c1.264,0.416,2.56,0.712,3.824,1.104l-6.672,14.096c-0.583,0.62-1.061,1.33-1.416,2.104    c-0.143,0.486-0.239,0.984-0.288,1.488L109.238,434.768z M203.982,344.312l-42.504,17.504l14.84-31.352l27.664,11.392V344.312z     M183.182,315.976l4-8.528c0.375-0.848,0.6-1.755,0.664-2.68c5.333,1.157,10.701,2.077,16.104,2.76l0.032,17.016L183.182,315.976z     M235.982,409.392c0,4.418-3.582,8-8,8s-8-3.582-8-8v-54.4l8-3.296l8,3.296V409.392z M235.982,331.136l-8,3.288l-8-3.296v-22.24    c2.664,0.112,5.328,0.312,8,0.312s5.336-0.2,8-0.312V331.136z M173.918,284.496c-9.288-3.101-17.954-7.819-25.6-13.936    l-6.352-5.064c-24.021-19.214-35.446-50.136-29.688-80.352L128.87,98.04c10.432-54.738,63.264-90.655,118.002-80.222    c40.666,7.75,72.472,39.556,80.222,80.222l16.592,87.104c5.756,30.216-5.669,61.137-29.688,80.352l-6.336,5.064    c-7.646,6.117-16.312,10.835-25.6,13.936C246.949,296.111,209.03,296.111,173.918,284.496z M272.79,315.976l-20.808,8.568v-17.016    c5.408-0.688,10.776-1.608,16.104-2.76c0.064,0.925,0.289,1.832,0.664,2.68L272.79,315.976z M251.982,344.312v-2.456    l27.664-11.392l14.84,31.352L251.982,344.312z M363.398,434.536c-1.918,4.533-7.147,6.653-11.68,4.735    c-0.107-0.045-0.214-0.093-0.32-0.143c-2.043-0.813-3.701-2.371-4.64-4.36L291.67,318.464c-0.049-0.504-0.145-1.002-0.288-1.488    c-0.355-0.776-0.833-1.489-1.416-2.112l-6.672-14.088c1.264-0.392,2.56-0.688,3.824-1.104c4.541-1.543,8.963-3.415,13.232-5.6    c0.073,0.674,0.235,1.336,0.48,1.968l62.352,131.536C364.214,429.766,364.292,432.286,363.398,434.536z"
			 fill="#006DF0" />
		</g>
	</g>
	<g>
		<g>
			<path d="M306.638,229.8c-2.452-3.676-7.42-4.668-11.096-2.216c-40.885,27.359-94.235,27.359-135.12,0    c-3.676-2.452-8.644-1.46-11.096,2.216s-1.46,8.644,2.216,11.096c22.625,15.122,49.226,23.196,76.44,23.2    c27.214-0.004,53.815-8.078,76.44-23.2C308.098,238.443,309.09,233.476,306.638,229.8z"
			 fill="#006DF0" />
		</g>
	</g>
	<g>
	</g>
	<g>
	</g>
	<g>
	</g>
	<g>
	</g>
	<g>
	</g>
	<g>
	</g>
	<g>
	</g>
	<g>
	</g>
	<g>
	</g>
	<g>
	</g>
	<g>
	</g>
	<g>
	</g>
	<g>
	</g>
	<g>
	</g>
	<g>
	</g>
</svg>